<svg width="24" height="24" viewBox="0 0 24 24" fill="none" xmlns="http://www.w3.org/2000/svg">
<path fill-rule="evenodd" clip-rule="evenodd" d="M11.3753 3.78065C11.7405 3.48848 12.2595 3.48848 12.6247 3.78065L20.6247 10.1807C20.8619 10.3704 21 10.6577 21 10.9615V20.0003C21 20.5526 20.5523 21.0003 20 21.0003H16C16 21.0003 16 21.0003 16 21.0002V13.0002C16 11.8957 15.1046 11.0002 14 11.0002H10C8.89543 11.0002 8 11.8957 8 13.0002V21.0002C8 21.0003 8 21.0003 8 21.0003H4C3.44772 21.0003 3 20.5526 3 20.0003V10.9615C3 10.6577 3.13809 10.3704 3.3753 10.1807L11.3753 3.78065ZM13.8741 2.21892C12.7784 1.34239 11.2216 1.34239 10.1259 2.21892L2.12591 8.61892C1.41427 9.18823 1 10.0502 1 10.9615V20.0003C1 21.6571 2.34315 23.0003 4 23.0003H20C21.6569 23.0003 23 21.6571 23 20.0003V10.9615C23 10.0502 22.5857 9.18823 21.8741 8.61892L13.8741 2.21892ZM10 13.0002H14V21.0002H10V13.0002Z" fill="#77818F"/>
</svg>
