<svg width="24" height="24" viewBox="0 0 24 24" fill="none" xmlns="http://www.w3.org/2000/svg">
<g clip-path="url(#clip0_3100_24979)">
<path d="M23.9419 7.1732L12.8305 1.6175C12.5183 1.46083 12.1494 1.46083 11.8361 1.6175L0.724677 7.1732C0.502449 7.2832 0.331334 7.47654 0.23022 7.68655C0.163552 7.82211 0.111328 8.05322 0.111328 8.16656V14.5723C0.111328 15.1845 0.609119 15.6834 1.22247 15.6834C1.83582 15.6834 2.33361 15.1845 2.33361 14.5723V9.80883L4.55589 10.6977V16.1468C4.55589 16.5668 4.79367 16.9512 5.17035 17.1401C7.0804 18.0935 9.04378 19.2724 12.3339 19.2724C15.624 19.2724 17.5884 18.0935 19.4974 17.1401C19.8741 16.9501 20.1118 16.5668 20.1118 16.1457V10.6966L23.8586 9.1977C24.2642 9.03547 24.5375 8.64991 24.5553 8.21212C24.5742 7.77544 24.3331 7.36987 23.9419 7.1732ZM17.8896 15.459L16.8062 16.0001C14.005 17.4012 10.6616 17.4012 7.86153 16.0001L6.77817 15.459V11.5866L11.9205 13.6445C12.0539 13.6978 12.1939 13.7223 12.3339 13.7223C12.4739 13.7223 12.6139 13.6978 12.7472 13.6434L17.8896 11.5855V15.459ZM12.3339 11.4144L3.93254 8.05322L12.3339 3.85423L20.7352 8.05322L12.3339 11.4144Z" fill="#77818F"/>
<path d="M1.22247 17.0557C0.609119 17.0557 0.111328 17.5535 0.111328 18.1668V20.3891C0.111328 21.0035 0.609119 21.5002 1.22247 21.5002C1.83582 21.5002 2.33361 21.0035 2.33361 20.3891V18.1668C2.33361 17.5535 1.83582 17.0557 1.22247 17.0557Z" fill="#77818F"/>
</g>
<defs>
<clipPath id="clip0_3100_24979">
<rect width="24" height="24" fill="white"/>
</clipPath>
</defs>
</svg>
