<svg width="24" height="24" viewBox="0 0 24 24" fill="none" xmlns="http://www.w3.org/2000/svg">
<path fill-rule="evenodd" clip-rule="evenodd" d="M6.50441 3.64546C8.13831 2.57068 10.0515 1.9986 12.0072 2L12.0117 2.00001V2.00002C12.7885 2.00404 13.5624 2.0955 14.3188 2.27267C14.7612 2.37631 15.0781 2.76523 15.0903 3.21948C15.1025 3.67373 14.8069 4.07909 14.3707 4.20632C13.18 4.55357 12.1544 5.3182 11.4817 6.36011C10.8089 7.40203 10.5341 8.65147 10.7076 9.8795C10.8811 11.1075 11.4913 12.2319 12.4264 13.0467C13.3611 13.8611 14.5579 14.3117 15.7976 14.3158C16.6636 14.3159 17.5157 14.0981 18.2754 13.6822C19.0354 13.2661 19.6783 12.6653 20.1449 11.9352C20.3894 11.5526 20.8609 11.3828 21.2932 11.5215C21.7255 11.6603 22.01 12.0729 21.9861 12.5263C21.8832 14.4793 21.2099 16.3593 20.0495 17.9335C18.889 19.5077 17.2925 20.7071 15.4574 21.3833C13.6223 22.0595 11.6292 22.1827 9.72481 21.7377C7.8204 21.2928 6.08826 20.2992 4.74277 18.8799C3.39727 17.4606 2.49748 15.6779 2.15476 13.7524C1.81203 11.827 2.04141 9.84333 2.81452 8.04692C3.58762 6.25052 4.87051 4.72023 6.50441 3.64546ZM10.752 4.09794C9.63249 4.27476 8.55839 4.68826 7.60353 5.31636C6.29641 6.17618 5.2701 7.40041 4.65161 8.83754C4.03313 10.2747 3.84962 11.8616 4.12381 13.402C4.39799 14.9423 5.11782 16.3684 6.19421 17.5039C7.27061 18.6393 8.65632 19.4342 10.1799 19.7902C11.7034 20.1462 13.2978 20.0476 14.7659 19.5066C16.234 18.9657 17.5112 18.0062 18.4396 16.7468C18.7419 16.3367 19.0029 15.9006 19.2203 15.445C18.1695 16.0169 16.992 16.3163 15.7955 16.3158L15.7929 16.3158C14.0718 16.3105 12.4102 15.6853 11.1125 14.5546C9.81487 13.4239 8.96808 11.8635 8.7273 10.1593C8.48651 8.45509 8.86786 6.72118 9.80146 5.27525C10.0777 4.84745 10.3968 4.45334 10.752 4.09794Z" fill="#77818F"/>
</svg>
