<svg width="24" height="24" viewBox="0 0 24 24" fill="none" xmlns="http://www.w3.org/2000/svg">
<path fill-rule="evenodd" clip-rule="evenodd" d="M9 7C9 5.34315 10.3431 4 12 4C13.6569 4 15 5.34315 15 7C15 8.65685 13.6569 10 12 10C10.3431 10 9 8.65685 9 7ZM12 2C9.23858 2 7 4.23858 7 7C7 9.76142 9.23858 12 12 12C14.7614 12 17 9.76142 17 7C17 4.23858 14.7614 2 12 2ZM6 14C4.34315 14 3 15.3431 3 17V21C3 21.5523 3.44772 22 4 22C4.55228 22 5 21.5523 5 21V17C5 16.4477 5.44772 16 6 16H18C18.5523 16 19 16.4477 19 17V21C19 21.5523 19.4477 22 20 22C20.5523 22 21 21.5523 21 21V17C21 15.3431 19.6569 14 18 14H6Z" fill="#77818F"/>
</svg>
